<?xml version="1.0" standalone="no"?><!DOCTYPE svg PUBLIC "-//W3C//DTD SVG 1.1//EN" "http://www.w3.org/Graphics/SVG/1.1/DTD/svg11.dtd"><svg t="1627208265227" class="icon" viewBox="0 0 1024 1024" version="1.1" xmlns="http://www.w3.org/2000/svg" p-id="5367" data-spm-anchor-id="a313x.7781069.0.i1" xmlns:xlink="http://www.w3.org/1999/xlink" width="200" height="200"><defs><style type="text/css">@font-face { font-family: feedback-iconfont; src: url("//at.alicdn.com/t/font_1031158_1uhr8ri0pk5.eot?#iefix") format("embedded-opentype"), url("//at.alicdn.com/t/font_1031158_1uhr8ri0pk5.woff2") format("woff2"), url("//at.alicdn.com/t/font_1031158_1uhr8ri0pk5.woff") format("woff"), url("//at.alicdn.com/t/font_1031158_1uhr8ri0pk5.ttf") format("truetype"), url("//at.alicdn.com/t/font_1031158_1uhr8ri0pk5.svg#iconfont") format("svg"); }
</style></defs><path d="M640 768c-12.8 0-21.333333-4.266667-29.866667-12.8-17.066667-17.066667-17.066667-42.666667 0-59.733333l213.333333-213.333333c17.066667-17.066667 42.666667-17.066667 59.733333 0s17.066667 42.666667 0 59.733333l-213.333333 213.333333C661.333333 763.733333 652.8 768 640 768z" p-id="5368" fill="#ffffff" data-spm-anchor-id="a313x.7781069.0.i2" class=""></path><path d="M853.333333 554.666667c-12.8 0-21.333333-4.266667-29.866667-12.8l-213.333333-213.333333c-17.066667-17.066667-17.066667-42.666667 0-59.733333s42.666667-17.066667 59.733333 0l213.333333 213.333333c17.066667 17.066667 17.066667 42.666667 0 59.733333C874.666667 550.4 866.133333 554.666667 853.333333 554.666667z" p-id="5369" fill="#ffffff"></path><path d="M853.333333 554.666667 170.666667 554.666667c-25.6 0-42.666667-17.066667-42.666667-42.666667s17.066667-42.666667 42.666667-42.666667l682.666667 0c25.6 0 42.666667 17.066667 42.666667 42.666667S878.933333 554.666667 853.333333 554.666667z" p-id="5370" fill="#ffffff"></path></svg>