<?xml version="1.0"?>
<svg width="32" height="16" xmlns="http://www.w3.org/2000/svg" xmlns:svg="http://www.w3.org/2000/svg">
 <mask height="16" id="mask0" maskUnits="userSpaceOnUse" width="32" x="0" y="0">
  <rect fill="#FF5A5A" height="16" id="svg_1" rx="8" width="32"/>
 </mask>
 <g class="layer">
  <title>Layer 1</title>
  <rect display="inline" fill="#9d52f1" height="16" id="svg_2" rx="8" width="32"/>
  <g display="inline" id="svg_3" mask="url(#mask0)" transform="matrix(1 0 0 1 0 0) matrix(1 0 0 1 0 0)">
   <path d="m16,-9l17.3205,30l-34.64101,0l17.32051,-30z" fill="#cc6faa" id="svg_4"/>
   <path d="m27.5,3l6.4952,11.25l-12.9904,0l6.4952,-11.25z" fill="#c265a0" id="svg_5" transform="matrix(1 0 0 1 0 0)"/>
   <path d="m7.5,-2l3.8971,6.75l-7.79421,0l3.89711,-6.75z" fill="#c0629d" id="svg_6" transform="matrix(1 0 0 1 0 0)"/>
   <path d="m9.5,13l3.8971,6.75l-7.79421,0l3.89711,-6.75z" fill="#c0629d" id="svg_7" transform="matrix(1 0 0 1 0 0)"/>
  </g>
  <path d="m10.8384,12.0801l2.05574,0l0,-2.8801l8.65001,0l0,-1.6l-8.65001,0l0,-1.9l8.65001,0l0,-1.85104l-8.65001,-0.01028c-1.60953,0.06125 -2.1063,0.53315 -2.05574,1.86132l0,6.3801z" fill="#3a015b" id="svg_8"/>
 </g>
</svg>